<?xml version="1.0" encoding="utf-8"?>
<!-- Generator: Adobe Illustrator 27.2.0, SVG Export Plug-In . SVG Version: 6.00 Build 0)  -->
<svg version="1.1" id="Layer_2_00000036953201465202619150000013942167211034063544_"
	 xmlns="http://www.w3.org/2000/svg" xmlns:xlink="http://www.w3.org/1999/xlink" x="0px" y="0px" viewBox="0 0 504.4 504.4"
	 style="enable-background:new 0 0 504.4 504.4;" xml:space="preserve">
<style type="text/css">
	.st0{fill:#FFFFFF;}
</style>
<rect x="0" class="st0" width="504.4" height="504.4"/>
<g id="Layer_1-2">
	<path d="M465.9,176.9c0-1.4,0.1-2.9,0.1-4.1s0-2.8-0.1-4.2c-0.2-7.7-4.5-11.2-12.2-11.2h-165c-7.7,0-12,3.5-12.2,11.2
		c0,1.4-0.1,2.9-0.1,4.2s0,2.8,0.1,4.2c0.2,7.7,4.5,11.2,12.2,11.2h165C461.4,188.1,465.7,184.7,465.9,176.9z"/>
	<path d="M465.9,256.4c0-1.4,0.1-2.9,0.1-4.2s0-2.8-0.1-4.2c-0.2-7.7-4.5-11.2-12.2-11.2h-165c-7.7,0-12,3.5-12.2,11.2
		c0,1.4-0.1,2.9-0.1,4.1c0,1.3,0,2.8,0.1,4.2c0.2,7.7,4.5,11.2,12.2,11.2h165C461.4,267.5,465.7,264.1,465.9,256.4z"/>
	<path d="M352.2,335.8c0-1.4,0.1-2.9,0.1-4.1c0-1.3,0-2.8-0.1-4.2c-0.2-7.7-4.5-11.2-12.2-11.2h-51.2c-7.7,0-12,3.5-12.2,11.2
		c0,1.4-0.1,2.9-0.1,4.1c0,1.3,0,2.8,0.1,4.2c0.2,7.7,4.5,11.2,12.2,11.2H340C347.7,347,351.9,343.5,352.2,335.8z"/>
	<path d="M57.9,157.5c-1.4-0.1-2.9-0.1-4.2-0.1s-2.8,0-4.2,0.1c-7.7,0.2-11.2,4.5-11.2,12.2v165c0,7.7,3.5,12,11.2,12.2
		c1.4,0,2.9,0.1,4.2,0.1s2.8,0,4.2-0.1c7.7-0.2,11.2-4.5,11.2-12.2v-165C69.1,162,65.6,157.7,57.9,157.5z"/>
	<path d="M137.3,157.5c-1.4-0.1-2.9-0.1-4.1-0.1s-2.8,0-4.2,0.1c-7.7,0.2-11.2,4.5-11.2,12.2v165c0,7.7,3.5,12,11.2,12.2
		c1.4,0,2.9,0.1,4.2,0.1s2.8,0,4.2-0.1c7.7-0.2,11.2-4.5,11.2-12.2v-165C148.5,162,145.1,157.7,137.3,157.5z"/>
	<path d="M216.8,157.5c-1.4-0.1-2.9-0.1-4.2-0.1s-2.8,0-4.2,0.1c-7.7,0.2-11.2,4.5-11.2,12.2v165c0,7.7,3.5,12,11.2,12.2
		c1.4,0,2.9,0.1,4.1,0.1s2.8,0,4.2-0.1c7.7-0.2,11.2-4.5,11.2-12.2v-165C227.9,162,224.5,157.7,216.8,157.5L216.8,157.5z"/>
</g>
</svg>
